<svg width="599" height="110" viewBox="0 0 599 110" fill="none" xmlns="http://www.w3.org/2000/svg">
<g clip-path="url(#clip0_533_117410)">
<path d="M49.672 110C17.7516 110 0 91.9111 0 54.9185C0 18.0889 17.5888 0 49.672 0H79.7988V19.2296H49.672C28.3375 19.2296 19.2174 29.8222 19.2174 54.9185C19.2174 80.1778 28.5003 90.7704 49.672 90.7704H112.79V110H49.672Z" fill="black"/>
<path d="M167.81 0L204.009 96.0699C208.013 106.638 216.182 110 226.753 110C237.965 110 245.333 106.157 249.338 96.0699L287.459 0H266.476L232.039 86.9432C230.918 89.5051 229.316 90.6259 226.753 90.6259C224.191 90.6259 222.429 89.5051 221.468 86.9432L188.632 0H167.81Z" fill="black"/>
<path d="M397.578 23.0568C398.699 20.4949 400.461 19.3741 403.024 19.3741C405.587 19.3741 407.349 20.4949 408.31 23.0568L441.145 110H462.128L425.608 13.9301C421.764 3.84279 414.396 0 403.184 0C391.812 0 384.444 3.84279 380.44 13.9301L342.479 110H363.301L397.578 23.0568Z" fill="black"/>
<path d="M517.147 0V18.821H548.58V110H567.567V18.821H599V0H517.147Z" fill="black"/>
</g>
<defs>
<clipPath id="clip0_533_117410">
<rect width="599" height="110" fill="white"/>
</clipPath>
</defs>
</svg>
